<?xml version="1.0" encoding="utf-8"?>
<!-- Generator: Adobe Illustrator 21.1.0, SVG Export Plug-In . SVG Version: 6.00 Build 0)  -->
<svg version="1.1" id="Layer_1" xmlns="http://www.w3.org/2000/svg" xmlns:xlink="http://www.w3.org/1999/xlink" x="0px" y="0px"
	 viewBox="0 0 206.6 62.2" style="enable-background:new 0 0 206.6 62.2;" xml:space="preserve">
<style type="text/css">
	.st0{fill:url(#SVGID_1_);}
	.st1{fill:url(#SVGID_2_);}
	.st2{fill:url(#SVGID_3_);}
	.st3{fill:url(#SVGID_4_);}
	.st4{fill:url(#SVGID_5_);}
	.st5{fill:url(#SVGID_6_);}
	.st6{fill:url(#SVGID_7_);}
</style>
<title>Asset 2</title>
<g id="Layer_2">
	<g id="Layer_1-2">
		
			<linearGradient id="SVGID_1_" gradientUnits="userSpaceOnUse" x1="10.4389" y1="-38.97" x2="10.7689" y2="122.7" gradientTransform="matrix(1 0 0 -1 0 64)">
			<stop  offset="0" style="stop-color:#9E0817"/>
			<stop  offset="1" style="stop-color:#EF5E5E"/>
		</linearGradient>
		<path class="st0" d="M20.6,43.6c0.4,0.5,0.6,1.1,0.6,1.7c0,0.6-0.3,1.3-0.7,1.7c-0.5,0.5-1.2,0.7-1.8,0.7h-1.3
			c-4.1,0.1-7.9-2.2-9.8-5.8c-1-1.8-1.5-3.9-1.4-6V19.6h-4c-0.6,0-1.1-0.2-1.5-0.6C0.2,18.6,0,18.1,0,17.6c0-0.6,0.2-1.1,0.6-1.5
			c0.4-0.4,1-0.6,1.6-0.6h4V6c0-0.6,0.2-1.2,0.6-1.7c0.4-0.5,1.1-0.7,1.7-0.7c1.3,0,2.3,1,2.3,2.2c0,0,0,0.1,0,0.1v9.5h6.9
			c0.6,0,1.1,0.2,1.6,0.6c0.4,0.4,0.6,0.9,0.6,1.5c0,0.5-0.2,1.1-0.6,1.5c-0.4,0.4-1,0.6-1.6,0.6h-6.9v16.3
			c-0.1,1.9,0.6,3.7,1.8,5.1c1.2,1.3,2.9,2.1,4.7,2H19C19.6,43,20.2,43.2,20.6,43.6z"/>
		
			<linearGradient id="SVGID_2_" gradientUnits="userSpaceOnUse" x1="43.8186" y1="-39.03" x2="44.1586" y2="122.63" gradientTransform="matrix(1 0 0 -1 0 64)">
			<stop  offset="0" style="stop-color:#9E0817"/>
			<stop  offset="1" style="stop-color:#EF5E5E"/>
		</linearGradient>
		<path class="st1" d="M35.3,45.8c-2.5-1.4-4.6-3.5-6.1-6.1C27.7,37,27,34,27,31c0-3,0.7-6.1,2.2-8.7c1.4-2.6,3.5-4.7,6.1-6.1
			c2.7-1.5,5.7-2.2,8.7-2.2c3,0,6,0.7,8.7,2.2c2.5,1.4,4.6,3.6,6.1,6.1C60.2,25,61,28,60.9,31c0,3-0.7,6-2.2,8.7
			c-1.4,2.5-3.5,4.6-6.1,6.1C50,47.2,47,48,44,48C41,48,37.9,47.2,35.3,45.8z M50.3,42c1.9-1.1,3.4-2.7,4.4-4.5
			c1.1-2,1.6-4.2,1.6-6.5c0-2.3-0.5-4.5-1.6-6.6c-1-1.9-2.5-3.5-4.4-4.5c-3.9-2.2-8.7-2.2-12.7,0c-1.9,1.1-3.4,2.6-4.5,4.5
			c-1.1,2-1.6,4.3-1.6,6.6c0,2.3,0.5,4.5,1.6,6.5c1,1.9,2.6,3.4,4.4,4.5C41.6,44.2,46.4,44.2,50.3,42L50.3,42z"/>
		
			<linearGradient id="SVGID_3_" gradientUnits="userSpaceOnUse" x1="79.6725" y1="-39.11" x2="80.0025" y2="122.56" gradientTransform="matrix(1 0 0 -1 0 64)">
			<stop  offset="0" style="stop-color:#9E0817"/>
			<stop  offset="1" style="stop-color:#EF5E5E"/>
		</linearGradient>
		<path class="st2" d="M95.8,16.2c0,0.4-0.1,0.8-0.2,1.1L75.8,60.8c-0.2,0.8-0.9,1.4-1.8,1.4c-0.4,0-0.8-0.1-1.1-0.2
			c-0.8-0.2-1.4-1-1.4-1.8c0-0.4,0.1-0.8,0.2-1.1l6-13.4v-0.1L64.2,17.4c-0.2-0.3-0.2-0.7-0.2-1.1c0-0.8,0.5-1.6,1.3-1.8
			c0.3-0.2,0.7-0.2,1.1-0.2c0.8,0,1.6,0.5,1.8,1.3l11.9,25.1l11.3-25c0.3-0.8,1-1.3,1.8-1.3c0.4,0,0.8,0.1,1.1,0.2
			C95.2,14.7,95.8,15.4,95.8,16.2z"/>
		
			<linearGradient id="SVGID_4_" gradientUnits="userSpaceOnUse" x1="106.2732" y1="-39.16" x2="106.6032" y2="122.5" gradientTransform="matrix(1 0 0 -1 0 64)">
			<stop  offset="0" style="stop-color:#9E0817"/>
			<stop  offset="1" style="stop-color:#EF5E5E"/>
		</linearGradient>
		<path class="st3" d="M102.8,44.7c-1.6-2.2-2.5-4.9-2.3-7.6V2.3c0-0.6,0.2-1.2,0.7-1.7c0.4-0.4,1-0.7,1.7-0.6
			c0.6,0,1.2,0.2,1.7,0.6c0.4,0.4,0.7,1.1,0.6,1.7v34.8c-0.1,1.5,0.3,3,1.1,4.3c0.5,1,1.6,1.6,2.7,1.6h1.5c0.6,0,1.1,0.2,1.5,0.6
			c0.4,0.5,0.6,1.1,0.6,1.7c0,0.6-0.3,1.3-0.8,1.7c-0.6,0.4-1.3,0.7-2,0.6h-0.8C106.5,47.7,104.2,46.6,102.8,44.7z"/>
		
			<linearGradient id="SVGID_5_" gradientUnits="userSpaceOnUse" x1="189.4388" y1="-39.33" x2="189.7788" y2="122.33" gradientTransform="matrix(1 0 0 -1 0 64)">
			<stop  offset="0" style="stop-color:#9E0817"/>
			<stop  offset="1" style="stop-color:#EF5E5E"/>
		</linearGradient>
		<path class="st4" d="M198.2,14.2c2.6,1.5,4.7,3.6,6.1,6.1c1.5,2.6,2.3,5.6,2.2,8.7c0,3-0.7,6-2.2,8.6c-2.9,5.2-8.4,8.4-14.3,8.3
			c-2.5,0-5-0.5-7.3-1.7c-2.2-1.1-4-2.7-5.4-4.6v17.9c0,1.3-0.9,2.3-2.2,2.4c-0.1,0-0.1,0-0.2,0c-0.6,0-1.2-0.2-1.7-0.7
			c-0.4-0.5-0.7-1.1-0.6-1.7V43.9c0-0.2-0.1-0.4-0.1-0.5V29c0-3,0.7-6,2.2-8.7c1.5-2.6,3.6-4.7,6.1-6.1
			C186.4,11.2,192.9,11.2,198.2,14.2L198.2,14.2z M195.9,40c1.9-1.1,3.4-2.6,4.4-4.5c1.1-2,1.7-4.2,1.6-6.5c0-2.3-0.5-4.5-1.6-6.5
			c-1-1.9-2.6-3.5-4.4-4.6c-1.9-1.1-4.1-1.7-6.3-1.7c-4.5-0.1-8.6,2.3-10.7,6.2c-1.1,2-1.7,4.2-1.6,6.5c0,0.5,0,1,0.1,1.5
			c0,0.1,0.1,0.2,0.1,0.3c0.3,3,1.7,5.8,4,7.8c2.2,2,5.2,3.1,8.2,3C191.8,41.7,194,41.1,195.9,40z"/>
		
			<linearGradient id="SVGID_6_" gradientUnits="userSpaceOnUse" x1="140.04" y1="43.27" x2="113.2765" y2="43.27" gradientTransform="matrix(1 0 0 -1 0 64)">
			<stop  offset="0" style="stop-color:#9E0817"/>
			<stop  offset="1" style="stop-color:#EF5E5E"/>
		</linearGradient>
		<path class="st5" d="M126.5,12.6c-1.7,0-3.4,0.4-4.9,1.2c-1.6,0.8-3.1,1.9-4.2,3.3c-1.3,1.5-2.3,3.3-3,5.2
			c-0.8,2.1-1.1,4.4-1.1,6.6c8.8-2.1,17.9-2.3,26.8-0.4c0-2.3-0.4-4.7-1.3-6.9c-0.6-1.6-1.6-3.1-2.7-4.4
			C133.7,14.3,130.2,12.6,126.5,12.6z"/>
		
			<linearGradient id="SVGID_7_" gradientUnits="userSpaceOnUse" x1="-387.4579" y1="814.4255" x2="-414.2187" y2="814.4255" gradientTransform="matrix(-0.9999 -1.396223e-02 -1.396223e-02 0.9999 -236.7497 -784.2169)">
			<stop  offset="0" style="stop-color:#9E0817"/>
			<stop  offset="1" style="stop-color:#EF5E5E"/>
		</linearGradient>
		<path class="st6" d="M152.7,43.8c1.7,0,3.4-0.4,5-1.1c1.6-0.8,3.1-1.9,4.3-3.2c1.3-1.5,2.3-3.2,3-5.1c0.8-2.1,1.2-4.3,1.2-6.6
			c-4.3,1-8.7,1.5-13.1,1.5c-4.6,0-9.2-0.5-13.7-1.5c-0.1,2.3,0.3,4.7,1.2,6.9c0.6,1.6,1.6,3.1,2.7,4.4
			C145.6,42,149,43.8,152.7,43.8z"/>
	</g>
</g>
</svg>
